<svg xmlns="http://www.w3.org/2000/svg" viewBox="0 0 260 91" preserveAspectRatio="xMidYMid meet" class="css-1kt33a3" id="faffdabf"><defs id="SvgjsDefs1001"/><g id="SvgjsG1007" featurekey="rootContainer" transform="matrix(1,0,0,1,0,0)" fill="#337400"><rect xmlns="http://www.w3.org/2000/svg" width="260" height="91" rx="10" ry="10"/></g><g id="SvgjsG1008" featurekey="Hwge0E-0" transform="matrix(16.270359062730527,0,0,16.270359062730527,-6.221210480879725,7.393398937417837)" fill="#ffffff"><title xmlns="http://www.w3.org/2000/svg">icon</title><path xmlns="http://www.w3.org/2000/svg" d="M3.91487,3.6416c.00531-.07092.01368-.15016.01677-.22384a.63838.63838,0,0,0-.01174-.19.50567.50567,0,0,1-.016-.06919l-.00014-.001,0-.00351.00065-.0108.00283-.01539c.00065-.00314.00662-.02522.00522-.021.00419-.01333.00919-.02643.01427-.03944l.00945-.02245.002-.00468.00208-.00426c.0156-.033.03263-.06493.04926-.09711a1.09955,1.09955,0,0,0,.08843-.218.30551.30551,0,0,0,.00861-.17035c-.02975-.08359-.12462-.0148-.1826.03925a1.66626,1.66626,0,0,0-.13905.14874,1.72361,1.72361,0,0,0,.10694-.32056.55411.55411,0,0,0,.01291-.15027.35966.35966,0,0,0-.031-.121.157.157,0,0,0-.234-.085.60214.60214,0,0,0-.02152-.079A.19872.19872,0,0,0,3.425,1.83054a.31445.31445,0,0,0-.16356.04693c-.0014-.20958-.02942-.43408-.15554-.50905a.27094.27094,0,0,0-.24024.012c-.04238-.08645-.10565-.142-.19811-.12263a.28679.28679,0,0,0-.05847.01946l-.00082-.00695A.67709.67709,0,0,0,2.52257.98715.16459.16459,0,0,0,2.313.91538a.46832.46832,0,0,0-.13817.08894A.4848.4848,0,0,0,2.11347.87139.20083.20083,0,0,0,1.95821.77482a.34709.34709,0,0,0-.21393.09054,1.70776,1.70776,0,0,0-.4221.60527c-.05736.11991-.11337.2436-.16156.3685a4.56813,4.56813,0,0,0-.15307.477,3.92479,3.92479,0,0,0-.13048.784,1.36823,1.36823,0,0,0,.013.29948.53779.53779,0,0,0,.03567.12167.13047.13047,0,0,0,.016.02863c-.00641-.00833.001.00211.00183.00337l.01111.01609a.17974.17974,0,0,0,.03256.03476.19572.19572,0,0,0,.21023.00964.68949.68949,0,0,0,.21819-.18108,1.49715,1.49715,0,0,0,.15773-.22679q.0694-.08554.13419-.17968c-.02062.0813-.0408.16261-.06134.244-.02334.09239-.04525.185-.05948.27684a.62376.62376,0,0,0,.0037.28171.09727.09727,0,0,0,.06668.06736.17749.17749,0,0,0,.12522-.044.86776.86776,0,0,0,.15275-.14675.11782.11782,0,0,0,.063.05852c.06444.02311.14746-.02638.2179-.08687.02344-.02007.04631-.04173.06865-.0647a.56955.56955,0,0,0-.00842.09505.16411.16411,0,0,0,.04082.12518.11143.11143,0,0,0,.12956-.00636.89051.89051,0,0,0,.20713-.21c.03679-.04771.07253-.09758.10729-.14894a.13693.13693,0,0,0,.01193.07658.06143.06143,0,0,0,.08911.01754.53906.53906,0,0,0,.09763-.07082c.04276-.03621.0853-.07382.12687-.11494a2.0409,2.0409,0,0,0,.26669-.3297,1.93077,1.93077,0,0,0,.196-.37164,1.40017,1.40017,0,0,0,.08193-.36778.96078.96078,0,0,0,.00355-.11035l.00908-.00385.00669-.00248L3.66114,2.187a.1235.1235,0,0,1,.029-.00222h.001L3.6926,2.185,3.705,2.1883l.012.00478.00486.00257a.1291.1291,0,0,1,.02133.01935l.00908.01113.0061.01a.26614.26614,0,0,1,.01717.03535l.00784.02139c-.00454-.0127-.00007.001.00056.00339l.00346.0183.00119.009c-.00054-.00474.0004.00688.00047.00918.0003.01027,0,.021-.00054.03173L3.78723,2.381l0,.00023-.00058.00452c-.00183.01366-.00426.02745-.007.0412l-.00809.0366-.00473.01864-.00339.01226c-.00755.026-.01607.05167-.02531.07719-.02224.06128-.048.1213-.075.18031l-.00519.0113-.01053.02238-.02044.0425c-.01516.03134-.03078.062-.04781.09187a2.16031,2.16031,0,0,1-.13709.20681c-.0526.07279-.10537.14581-.154.22421a.11289.11289,0,0,0-.01127.096c.01508.03162.04643.02325.07412-.00571a3.51369,3.51369,0,0,0,.27123-.33443c.08219-.11059.16352-.22468.252-.32268L3.897,2.75957l.01148-.01212.00491-.005c.015-.0149.03024-.02907.04568-.04206l.02079-.01616.00234-.00164c-.0025.01354-.00582.02718-.00933.04077l-.00105.00423-.002.00636-.00772.02283c-.00547.01537-.0119.03045-.01845.04538l-.00126.0029-.00309.00641-.01111.02241-.02692.05225a1.16614,1.16614,0,0,0-.08965.2.46133.46133,0,0,0-.02229.12107.33388.33388,0,0,0,.01254.09047L3.8106,3.33l.00351.01417.00215.00608.00019.00295c.00255.03518.00388.071.004.10755.00014.07456-.00342.15194-.00917.22894-.003.04.024.06.05047.04771A.11668.11668,0,0,0,3.91487,3.6416Zm-.5843-1.63119.00059-.00019.00182-.0005.01729-.00359.02507-.00269c.00412-.00026.00809-.00019.01211-.00014l.00728.00047a.12505.12505,0,0,1,.03487.01188l.00617.004.00915.00783a.14342.14342,0,0,1,.017.01918l.00038.00047.00126.002.00732.01221A.30742.30742,0,0,1,3.486,2.0922l.00851.02227.00311.01034.004.01589.001.00437a1.52874,1.52874,0,0,0-.17821.19991c-.056.07267-.10937.15-.16043.23034a2.33318,2.33318,0,0,0,.07534-.34627c.00814-.06281.014-.12516.01768-.18658a.49808.49808,0,0,1,.04645-.0222Zm-.3581-.49809c.00477-.00017.0095,0,.01417.00024l.008.00083a.17508.17508,0,0,1,.02681.00689l.01965.00869.00767.00489.00889.0074.015.01593.00384.00491c-.00384-.00514.004.00609.00552.00867a.31343.31343,0,0,1,.02271.04777l.00489.01345.00239.0074.008.03027a.99409.99409,0,0,1,.02215.1436L3.143,1.8228l.001.01532.00185.0386c.001.02465.00131.0497.00131.0749a1.48693,1.48693,0,0,0-.20391.19148l-.0182.02049a1.70449,1.70449,0,0,0,.02061-.19338A1.98524,1.98524,0,0,0,2.933,1.637a1.15281,1.15281,0,0,0-.02014-.11664A.27519.27519,0,0,1,2.97247,1.51232ZM2.62235,1.4242l.01148-.00411.00227-.00051L2.65945,1.416,2.677,1.4159l.02012.00553.01574.00751.01417.01175.01172.01215a.91886.91886,0,0,0-.11386.09667c-.00012-.04218-.00119-.08395-.0033-.125ZM2.26252,2.9261c-.01245.03176-.02544.06334-.03875.09477l-.0206.04762-.01061.02381-.00719.01576-.00178.00379c-.03072.06587-.06366.13037-.09857.19292-.01664.0298-.03394.05894-.05162.08757l-.01953.031c.0005-.01988.00159-.04.00285-.06l.00293-.03569.00168-.0182.00091-.00865c.0029-.02531.00627-.0508.01-.07634.0147-.10189.03511-.20508.059-.3079q.01456-.06273.03136-.12532l.0043-.01565.00676-.02309q.01377-.04666.02879-.093c.04124-.12855.08875-.25585.14153-.38021q.01958-.04624.04039-.09172l.00244-.00538.0017-.00373.01061-.02257.02529-.052c.02987-.06044.06175-.11952.09533-.1767l.02477-.041-.00161.01852c-.00571.06323-.014.129-.02468.20052s-.02357.14335-.03819.21544a3.69216,3.69216,0,0,1-.10676.40943C2.31189,2.7962,2.28794,2.86141,2.26252,2.9261ZM2.23974,1.108l.02042-.01447.00847-.00522.01678-.00921L2.31005,1.068l.00574-.00213.00789-.00228.02282-.003.01021,0,.00615.00133a.11652.11652,0,0,1,.02283.00827l.00693.00381.00589.00439a.15841.15841,0,0,1,.01869.01752l.00861.0102.00433.00565.001.00153a.33512.33512,0,0,1,.02776.05415l.01157.031.00094.00276.00117.00372.00629.02271a.99738.99738,0,0,1,.02283.11819,1.50506,1.50506,0,0,0-.27511.32639l-.01536.02365a2.50028,2.50028,0,0,0,.01251-.33053,1.8361,1.8361,0,0,0-.01937-.22892C2.21613,1.1264,2.22787,1.117,2.23974,1.108Zm-.3739,1.35708c-.02483.07578-.0478.15178-.06949.22786L1.77,2.74c-.01239-.013-.03712-.00632-.05052.02847-.02.052-.04168.104-.065.1551l-.027.03817c-.03956.055-.08074.10717-.12294.15709-.02044.02423-.0412.04762-.06213.07054l-.03176.03406L1.3946,3.24l-.008.00809-.00539.00547c-.04187.04182-.08464.0814-.12726.12036a.68143.68143,0,0,1-.05915.04879l-.00829.00543-.01034.00557-.01333.00585-.00636.00093-.00368-.00009L1.14537,3.437c.0093.00458.00675.00285.00357.00038l-.00428-.00664L1.14318,3.427l-.00241-.00739c.004.01244.00081.00215-.00028-.00215l-.00464-.02563-.00044-.00421-.00019-.0044c-.00037-.00861-.00028-.01745-.00011-.02634l.00146-.02816.00037-.00463.00148-.01347a1.24851,1.24851,0,0,1,.02752-.13917l.00927-.03569.00289-.01048.00249-.00889c.00772-.0268.016-.05347.02447-.08.05991-.18679.13807-.36568.20789-.54872.05456-.14308.1114-.28541.1734-.425a3.98934,3.98934,0,0,1,.20139-.394,2.76667,2.76667,0,0,1,.199-.29043c.03261-.04259.066-.08374.10018-.123l.01806-.0204c.00421.02884.00746.05837.01.08832l.0008.01021.00112.017.00175.03428c.00108.02493.00161.05021.00181.07557.00037.04828-.0009.09743-.00353.147-.00118.02314-.00282.04644-.00464.06978l-.003.03443-.00166.017-.00095.00914c-.00489.04395-.01124.08836-.019.13292q-.0061.03515-.01352.07057A4.074,4.074,0,0,0,1.86585,2.46509Zm-.86767.93718L.9946,3.39184C.99666,3.398.99284,3.38567.99254,3.38445l-.007-.02839c-.00477-.02138-.00821-.04388-.011-.0669L.97157,3.26048.97071,3.24921.96976,3.23195C.96844,3.20664.96811,3.18082.96819,3.15486c.00023-.05052.003-.10231.0072-.15447l.00333-.03724.00181-.01857.00113-.01071q.00417-.037.00932-.07419c.0083-.06109.01833-.1227.02917-.18422a4.31253,4.31253,0,0,1,.10763-.4618,3.91816,3.91816,0,0,1,.158-.44342c.05313-.12371.09652-.22014.15772-.33876.03-.05812.06171-.11495.09516-.16973l.024-.03824.01221-.01864.0082-.01207c.01679-.02439.0343-.04784.05218-.07044.01682-.02131.03435-.0414.05217-.06053l.00875-.00916.01016-.00976.033-.02975A.67876.67876,0,0,1,1.79468.97L1.80343.96406,1.812.959,1.8408.94364,1.86443.93371,1.87581.92977l.00009,0,.0016-.00039A.18167.18167,0,0,1,1.92266.924l.00851.00037.00131.00022L1.95067.929l.01724.00673.00824.0042L1.97821.941l.00061.00037a.18131.18131,0,0,1,.02939.02554l.01336.01571.00372.00483c-.00353-.00474.00373.00565.00516.00782a.44128.44128,0,0,1,.04238.09293l.002.00615.00161.00557a2.48413,2.48413,0,0,0-.19423.2373,3.20112,3.20112,0,0,0-.22989.357c-.07529.13691-.14238.28147-.20506.42718-.0303.07046-.05931.14155-.08768.213-.02514.06333-.04838.12785-.07439.19077-.033.07962-.06575.15933-.0968.23977-.03865.10008-.07457.20155-.10485.304a1.5638,1.5638,0,0,0-.06527.31464.51758.51758,0,0,0-.00125.06236A.3511.3511,0,0,1,.99818,3.40227Zm.842.23988-.001.00108-.0018.00173-.0125.01221-.02985.02709-.02571.02086-.01272.00926-.00588.00388-.0203.01048-.004.00159-.01048.00243L1.71152,3.733l-.0034-.00117H1.708l-.00523-.00515-.004-.00426L1.692,3.70648l-.00271-.01357L1.687,3.67345c-.00067-.01726-.00017-.03527.00077-.05328l.00249-.0319L1.69036,3.587l.002-.01619c.00321-.02489.0074-.05.01194-.07518.016-.08869.03823-.17785.06067-.26669.03151-.1249.06107-.2498.09428-.37461q.01368-.05158.0281-.103l.00508-.018.00773-.027.00087-.00306a3.04733,3.04733,0,0,0,.25821-.701c.03128-.06383.06516-.1253.10061-.18533.012-.02015.02424-.03981.03676-.05927l.01658-.02518.00565-.00829.01443-.02057q.04693-.0661.098-.12488L2.45615,1.551l.01267-.01341.00685-.00708q.01919-.019.03883-.03619l.00117.03286q.00211.07357.00033.14906a2.15638,2.15638,0,0,0-.14915.23635,3.68642,3.68642,0,0,0-.1827.38641,4.14338,4.14338,0,0,0-.20957.65646c-.02357.10413-.0431.2084-.057.31127a1.48425,1.48425,0,0,0-.01545.30683l-.01788.02082Q1.86256,3.61912,1.84022,3.64216Zm.43875-.191-.0239.02648-.01219.01286-.00566.0058-.00137.0014c-.01628.01623-.03288.03134-.04963.04561l-.02472.01979L2.14927,3.572l-.01178.008a.2644.2644,0,0,1-.04035.01969l-.00548.00178-.0053.00108-.01726.00154L2.055,3.60062l-.00338-.00136-.00424-.00281-.01151-.012c.003.0036.00081-.00033-.00186-.00515a3.05162,3.05162,0,0,0,.35015-.69875,4.00619,4.00619,0,0,0,.20729-.85384c.01364-.10172.02351-.20312.02889-.30274l.00442-.00531.02542-.02842.00865-.00905.0141-.01361c.01927-.01838.039-.035.0589-.05065l.03088-.023.01572-.0108.00456-.003.00723-.00445.00632-.00377.00362.01339a1.09561,1.09561,0,0,1,.028.15182l.00419.03883.00124.01439.001.01311c.002.028.00323.05649.00388.08519.00115.05079.00028.1028-.00271.1555q-.00182.03208-.005.06456l-.00056.0042-.00318.0221-.00849.05256c-.012.07-.02676.13832-.04365.20508l-.017.03241c-.07309.14043-.14132.28507-.20653.43093-.06795.15189-.13258.30692-.18708.46475l-.015.04472L2.32452,3.397C2.30965,3.4156,2.29439,3.43357,2.279,3.45111Zm.04473-.00239-.00026.00094C2.32923,3.42861,2.32545,3.44255,2.3237,3.44872ZM2.8849,3.034l-.00718.01562-.00856.0182-.02227.04589q-.02368.048-.049.09473c-.01932.03574-.04116.06956-.06266.10287l-.03417.05165-.00664.00973-.01081.01558-.02589.03668c-.0316.044-.06418.08664-.09772.12715q-.02295.02779-.04685.05356l-.01141.01212-.00133.0014-.02519.02353-.02078.01717L2.44,3.66976l-.01151.00561-.005.002-.01726.002L2.401,3.67752l-.00245-.00239-.00187-.00407L2.39486,3.661l-.00028-.00215L2.39444,3.6502c0-.00964.00055-.01951.0014-.02957L2.3987,3.601c.00442-.02774.01067-.05581.01761-.08374l.0057-.022.00365-.0131.01256-.04168.01055-.03322a2.28118,2.28118,0,0,0,.14629-.25266A3.77323,3.77323,0,0,0,2.85592,2.472c.02063-.03906.04177-.07785.06439-.11489l.00793-.01257.01256-.01627c.03043-.03875.06236-.07451.0948-.10831l.0073-.00748.00868-.00862.02681-.02567c.01983-.01864.04-.03623.06025-.053l.00229-.00186L3.14072,2.126c-.00178.025-.004.05015-.00657.07534l-.00063.00624-.00168.0146-.00524.04018c-.0072.05257-.01726.10534-.02931.15843-.00742.033-.01583.066-.02463.09891l-.006.022c.00269-.00987-.004.01385-.00419.01445l-.01785.05932c-.02222.07148-.04715.14244-.07389.21259C2.94424,2.89766,2.91542,2.96633,2.8849,3.034Zm.55394-.36979L3.42591,2.695a.15069.15069,0,0,0-.00664.01382l-.01151.02332c-.01668.0334-.03417.06619-.05218.09847-.01654.02971-.03375.05871-.05136.08724l-.02678.04224-.01364.02072-.004.006-.00669.00959a1.89133,1.89133,0,0,1-.123.15853,1.22832,1.22832,0,0,1-.12574.128c-.03658.03284-.07361.0653-.11094.09421l-.00608.00454L2.892,3.36256l.00349-.01319c-.00217.00814.00316-.01095.004-.01371.00536-.01829.01109-.03635.01766-.05431.00861-.02344.01806-.04669.02786-.0697l.01686-.03878.00929-.02049L2.97444,3.145c.01488-.0319.03027-.06348.04591-.095.07508-.1504.15758-.29446.24475-.43306l.033-.05153.01663-.02526.00835-.01249.00227-.00332q.03442-.05038.07045-.0981c.00884-.0117.01728-.02284.02566-.03542-.01434.02153.00428-.00334.00821-.00815L3.4663,2.339l.03342-.03707.01053-.011L3.51638,2.285c-.00021.025-.00159.05056-.00372.07637l-.00124.01324c.0007-.00748-.00105.00917-.0014.012l-.006.04087c-.0047.02943-.01083.05913-.01775.08874l-.008.03162-.00344.01268-.00613.01984C3.45987,2.60866,3.44981,2.63663,3.43884,2.66419Zm.54573-.00187,0,.00066C3.98163,2.65562,3.98335,2.65778,3.98457,2.66231Z" fill="#ffffff"/></g><g id="SvgjsG1009" featurekey="WvbTz5-0" transform="matrix(1.0419157352477864,0,0,1.0419157352477864,91.37485040980408,30.457483916672007)" fill="#ffffff"><path d="M10.6 20 l-2.9 0 l0 -0.62 q-0.76 0.52 -1.61 0.72 t-1.75 0.2 q-0.84 0 -1.52 -0.25 t-1.18 -0.72 t-0.77 -1.11 t-0.27 -1.42 q0 -0.98 0.43 -1.71 t1.17 -1.22 t1.73 -0.73 t2.13 -0.24 l1.66 0 q0 -1.02 -0.66 -1.62 t-1.9 -0.6 q-0.6 0 -1.24 0.22 t-1.28 0.8 l-1.7 -1.72 q0.92 -0.88 2.13 -1.36 t2.49 -0.48 q1.2 0 2.14 0.38 t1.52 0.98 q0.76 0.76 1.07 1.7 t0.31 2.4 l0 6.4 z M7.7 17.12 l0 -2.14 l-1.32 0 q-0.6 0 -1.13 0.08 t-0.92 0.27 t-0.62 0.49 t-0.23 0.72 q0 0.6 0.47 0.98 t1.21 0.38 q0.64 0 1.27 -0.2 t1.27 -0.58 z M23.299999999999997 8.42 l-5.2 13.74 q-0.58 1.54 -1.52 2.22 t-2.24 0.68 q-0.2 0 -0.44 -0.03 t-0.46 -0.09 l-0.96 -2.68 q0.34 0.16 0.7 0.25 t0.68 0.09 q0.68 0 1.24 -0.31 t0.86 -1.15 l0.4 -1.16 l-4.46 -11.56 l3.14 0 l2.66 7.44 l2.5 -7.44 l3.1 0 z M31.04 19.74 q-0.44 0.28 -1.02 0.42 t-1.16 0.14 q-1.02 0 -1.72 -0.25 t-1.12 -0.77 t-0.61 -1.32 t-0.19 -1.88 l0 -5.06 l-1.52 0 l0 -1.3 q1.4 -0.58 2.27 -1.72 t1.19 -2.96 l0.94 0 l0 3.38 l2.92 0 l0 2.6 l-2.92 0 l0 5.26 q0 0.44 0.11 0.72 t0.29 0.44 t0.41 0.22 t0.49 0.06 q0.34 0 0.82 -0.12 t0.82 -0.4 l0 2.54 z M44.68 14.2 q0 0.28 -0.03 0.58 t-0.07 0.62 l-9.24 0 q0.16 0.5 0.45 0.95 t0.71 0.78 t0.95 0.52 t1.17 0.19 q0.78 0 1.56 -0.27 t1.3 -0.73 l1.82 1.82 q-1.2 0.9 -2.35 1.27 t-2.43 0.37 q-1.3 0 -2.43 -0.48 t-1.96 -1.3 t-1.31 -1.93 t-0.48 -2.37 t0.48 -2.37 t1.32 -1.93 t1.96 -1.3 t2.4 -0.48 q1.22 0 2.34 0.45 t1.98 1.25 t1.36 1.91 t0.5 2.45 z M41.66 13.08 q-0.34 -1.1 -1.21 -1.77 t-1.97 -0.67 q-1.08 0 -1.94 0.67 t-1.2 1.77 l6.32 0 z M57.480000000000004 20 l-3.42 0 l-4.64 -5.18 l0 5.18 l-2.94 0 l0 -16.58 l2.94 0 l0 9.92 l4.04 -4.9 l3.36 0 l-4.74 5.62 z M61.480000000000004 6.42 l-3 0 l0 -3 l3 0 l0 3 z M61.44 20 l-2.92 0 l0 -11.58 l2.92 0 l0 11.58 z M74.60000000000001 20 l-2.88 0 l0 -6.9 q0 -0.62 -0.19 -1.09 t-0.51 -0.78 t-0.73 -0.46 t-0.85 -0.15 q-0.66 0 -1.3 0.23 t-1.16 0.73 l0 8.42 l-2.9 0 l0 -11.56 l2.9 0 l0 0.86 q0.26 -0.26 0.64 -0.48 t0.79 -0.37 t0.84 -0.23 t0.83 -0.08 q0.88 0 1.69 0.28 t1.44 0.86 t1.01 1.5 t0.38 2.18 l0 7.04 z M95.04 14.2 q0 0.28 -0.03 0.58 t-0.07 0.62 l-9.24 0 q0.16 0.5 0.45 0.95 t0.71 0.78 t0.95 0.52 t1.17 0.19 q0.78 0 1.56 -0.27 t1.3 -0.73 l1.82 1.82 q-1.2 0.9 -2.35 1.27 t-2.43 0.37 q-1.3 0 -2.43 -0.48 t-1.96 -1.3 t-1.31 -1.93 t-0.48 -2.37 t0.48 -2.37 t1.32 -1.93 t1.96 -1.3 t2.4 -0.48 q1.22 0 2.34 0.45 t1.98 1.25 t1.36 1.91 t0.5 2.45 z M92.02000000000001 13.08 q-0.34 -1.1 -1.21 -1.77 t-1.97 -0.67 q-1.08 0 -1.94 0.67 t-1.2 1.77 l6.32 0 z M105.16 9.64 l-1.54 2.44 q-0.42 -0.46 -0.93 -0.81 t-1.03 -0.35 q-0.28 0 -0.61 0.13 t-0.62 0.43 t-0.49 0.79 t-0.2 1.21 l0 6.52 l-2.9 0 l0 -11.56 l2.9 0 l0 1.24 q0.52 -0.74 1.15 -1.14 t1.41 -0.4 q0.76 0 1.49 0.41 t1.37 1.09 z M111.04 19.94 q-0.34 0.16 -0.77 0.26 t-0.89 0.1 q-0.64 0 -1.23 -0.17 t-1.03 -0.55 t-0.7 -0.99 t-0.26 -1.47 l0 -13.72 l2.94 0 l0 13.22 q0 0.72 0.29 0.99 t0.69 0.27 q0.5 0 0.96 -0.3 l0 2.36 z M121.84 20 l-2.9 0 l0 -0.62 q-0.76 0.52 -1.61 0.72 t-1.75 0.2 q-0.84 0 -1.52 -0.25 t-1.18 -0.72 t-0.77 -1.11 t-0.27 -1.42 q0 -0.98 0.43 -1.71 t1.17 -1.22 t1.73 -0.73 t2.13 -0.24 l1.66 0 q0 -1.02 -0.66 -1.62 t-1.9 -0.6 q-0.6 0 -1.24 0.22 t-1.28 0.8 l-1.7 -1.72 q0.92 -0.88 2.13 -1.36 t2.49 -0.48 q1.2 0 2.14 0.38 t1.52 0.98 q0.76 0.76 1.07 1.7 t0.31 2.4 l0 6.4 z M118.94000000000001 17.12 l0 -2.14 l-1.32 0 q-0.6 0 -1.13 0.08 t-0.92 0.27 t-0.62 0.49 t-0.23 0.72 q0 0.6 0.47 0.98 t1.21 0.38 q0.64 0 1.27 -0.2 t1.27 -0.58 z M128.92000000000002 19.94 q-0.34 0.16 -0.77 0.26 t-0.89 0.1 q-0.64 0 -1.23 -0.17 t-1.03 -0.55 t-0.7 -0.99 t-0.26 -1.47 l0 -13.72 l2.94 0 l0 13.22 q0 0.72 0.29 0.99 t0.69 0.27 q0.5 0 0.96 -0.3 l0 2.36 z M142.26 14.2 q0 0.28 -0.03 0.58 t-0.07 0.62 l-9.24 0 q0.16 0.5 0.45 0.95 t0.71 0.78 t0.95 0.52 t1.17 0.19 q0.78 0 1.56 -0.27 t1.3 -0.73 l1.82 1.82 q-1.2 0.9 -2.35 1.27 t-2.43 0.37 q-1.3 0 -2.43 -0.48 t-1.96 -1.3 t-1.31 -1.93 t-0.48 -2.37 t0.48 -2.37 t1.32 -1.93 t1.96 -1.3 t2.4 -0.48 q1.22 0 2.34 0.45 t1.98 1.25 t1.36 1.91 t0.5 2.45 z M139.24 13.08 q-0.34 -1.1 -1.21 -1.77 t-1.97 -0.67 q-1.08 0 -1.94 0.67 t-1.2 1.77 l6.32 0 z"/></g></svg>