<svg xmlns="http://www.w3.org/2000/svg" viewBox="0 0 410 104" preserveAspectRatio="xMidYMid meet" class="css-1r1wgx8" id="dacheacg"><defs id="SvgjsDefs1001"></defs><g id="SvgjsG1007" featurekey="rootContainer" transform="matrix(1,0,0,1,0,0)" fill="#65008c"><rect xmlns="http://www.w3.org/2000/svg" width="410" height="104" rx="10" ry="10"></rect></g><g id="SvgjsG1008" featurekey="monogramFeature-0" transform="matrix(1.4407112946727196,0,0,1.4407112946727196,19.513186941301367,-1.6106831597843865)" fill="#f7f7f7"><path d="M44.34 56.58 q0.42 0.96 -0.21 1.95 t-1.71 0.99 l-39.96 0 q-0.54 0 -1.02 -0.27 t-0.72 -0.69 q-0.66 -0.96 -0.18 -1.98 l1.86 -4.38 q0.24 -0.6 0.78 -0.96 t1.14 -0.36 l27.96 0 l-9.84 -23.52 l-8.04 19.2 q-0.24 0.6 -0.75 0.93 t-1.17 0.33 l-5.04 0 q-1.14 0 -1.8 -0.96 q-0.24 -0.42 -0.3 -0.96 t0.12 -1.02 l12.18 -28.56 q0.24 -0.6 0.75 -0.96 t1.17 -0.36 l5.76 0 q0.66 0 1.17 0.36 t0.75 0.96 z"></path></g><g id="SvgjsG1009" featurekey="nameFeature-0" transform="matrix(1.3086259160373173,0,0,1.3086259160373173,105.66130062287343,18.358190272209104)" fill="#f7f7f7"><path d="M8.8086 12.07 l4.707 0 c0.065098 0.27344 1.5885 5.358 4.5703 15.254 l0.85938 0 l0 9.1992 l-1.9336 0 l0 0.70313 l1.9336 0 l0 1.9727 l-5.1953 0 l0 -5.6445 l-6.3477 0 l0 2.4023 l-2.5977 0 l0 4.043 l-4.707 0 l0 -0.27344 l0.37109 0 l0 -3.7695 l1.9336 0 l0 -7.832 l1.6016 0 z M11.016 19.941 l0 0.039063 c-0.40365 2.2266 -1.1849 5.7291 -2.3438 10.508 l4.375 0 l0 -3.1641 l-0.37109 0 c-1.0417 -4.5182 -1.5625 -6.9791 -1.5625 -7.3828 l-0.097656 0 z M-1.2695 27.285 l3.6719 0 l0 0.83984 l-3.6719 0 l0 -0.83984 z M13.75 39.53125 l6.2695 0 l0 0.46875 l-6.2695 0 l0 -0.46875 z M20.58595 12.07 l5.4883 0.000019073 c0 2.6953 0.46875 4.9805 1.4063 6.8555 c1.0026 2.4479 1.6927 4.3881 2.0703 5.8203 l0 0.058594 l0.039063 0 c0.46875 -1.7318 1.4388 -4.3945 2.9102 -7.9883 c0.3776 -1.7057 0.56641 -3.2877 0.56641 -4.7461 l5.1563 0 c-0.3125 2.8125 -0.70313 4.8828 -1.1719 6.2109 l-3.1055 7.0313 l-1.875 0 l0 4.8242 l-2.8516 0 l0 0.9375 l2.8516 0 l0 8.9258 l-5.3516 0 c-0.05209 0 -0.078125 -0.032559 -0.078125 -0.097656 l0 -4.3555 l-0.85938 0 l0 -7.7539 l1.6016 0 l0 -0.70313 l-1.7383 0 c-0.14322 -0.16928 -1.2239 -2.5912 -3.2422 -7.2656 c-0.84635 -1.875 -1.2695 -3.0014 -1.2695 -3.3789 l2.3047 0 l0 -0.99609 l-2.4805 0 c-0.2474 -2.0572 -0.37109 -3.1836 -0.37109 -3.3789 z M17.24605 15.449000000000002 l3.7109 0 l0.13672 0.99609 l-3.8477 0 l0 -0.99609 z M32.070750000000004 30.136699999999998 l2.3047 0 l0 0.9375 l-2.3047 0 l0 -0.9375 z M38.37890875 12.012 l16.406 0 l0 4.668 l-5.4297 0 l0 19.355 l2.4609 0 l0 0.56641 l-2.4609 0 l0 2.1289 l-1.4648 0 l0 0.74219 l1.0352 0 l0 0.52734 l-4.9805 0 c-0.065098 0 -0.097656 -0.032559 -0.097656 -0.097656 l0 -23.223 l-5.4688 0 l0 -4.668 z M47.42191875 36.0352 l0 0.56641 l1.8945 0 l0 -0.56641 l-1.8945 0 z M55.42971875 12.207 l13.691 0 l0 4.5508 c0 0.065098 -0.032559 0.097656 -0.097656 0.097656 l-8.125 0 l0 6.0156 l7.2852 0 l0 0.058594 c0 0.16928 -0.026035 1.1523 -0.078125 2.9492 c-0.039063 0 -0.058594 0.013027 -0.058594 0.039063 l0.33203 0 l0 1.4063 l-6.3086 0 l0 5.7031 l-1.6992 0 l0 0.56641 l1.6992 0 l0 1.7383 l7.1484 0 l0 0.64453 l-0.56641 0 l0 3.418 l-8.5547 0 l0 0.60547 l-4.0625 0 l0 -9.9609 l-0.60547 0 l0 -3.5156 l-4.4531 0 l0 -0.60547 l4.4531 0 l0 -13.711 z M55.46871875 25.918 l0 0.60547 l2.2852 0 l0 -0.60547 l-2.2852 0 z M71.328125 12.187000000000001 l5.4688 0.000019073 l0 5.2344 c0 1.7448 -0.032559 3.6264 -0.097656 5.6445 l0 0.058594 l0.058594 0 c0.44271 -0.85938 1.6732 -3.06 3.6914 -6.6016 c1.0287 -1.7969 1.543 -3.151 1.543 -4.0625 l0 -0.27344 l5.6055 0 l0 0.13672 c0 1.7838 -0.72916 3.7305 -2.1875 5.8398 l-3.3203 4.8242 l3.2617 6.9531 l2.9492 0 l0 0.83984 l-3.3203 0 l0 0.058594 c0.53385 1.1458 0.87891 1.8294 1.0352 2.0508 l0.60547 0 l0 2.5195 l0.83984 0 l0 4.5508 c-0.95053 0.026035 -1.6537 0.039063 -2.1094 0.039063 l-1.3477 0 c-0.48178 0 -1.1393 -0.013027 -1.9727 -0.039063 l0 -3.0469 l-1.2109 0 l0 -4.0234 l-0.70313 0 l-0.74219 -2.1094 l5.5664 0 l0 -0.83984 l-5.0977 0 c0 -0.065098 -0.29947 -0.99609 -0.89844 -2.793 l-0.039063 0 c-0.3125 0.58594 -0.9375 1.5169 -1.875 2.793 l2.3438 0 l0 0.83984 l-2.5781 0 l0 1.3672 l-0.33203 0 l0 6.3477 l0.33203 0 l0 1.4063 c0 0.065098 -0.032559 0.097656 -0.097656 0.097656 l-5.2734 0 c-0.065098 0 -0.097656 -0.032559 -0.097656 -0.097656 l0 -2.1875 l2.4805 0 l0 -0.9375 l-2.4805 0 l0 -24.59 z M73.574225 29.941000000000003 l0 0.83982 l3.1836 0 c0 -0.10416 0.078125 -0.3841 0.23438 -0.83982 l-3.418 0 z M90.72269375 12.012 l5.2734 -0.000019073 c0.05209 0.013027 0.078125 0.045586 0.078125 0.097676 l0 13.594 c0 0.065098 -0.026035 0.097656 -0.078125 0.097656 l-0.625 0 l0 14.102 c0 0.065098 -0.032559 0.097656 -0.097656 0.097656 l-4.5508 0 c-0.065098 0 -0.097656 -0.032559 -0.097656 -0.097656 l0 -14.434 l-1.4063 0 c-0.065098 0 -0.097656 -0.032559 -0.097656 -0.097656 l0 -0.60547 c0.013027 -0.065098 0.045586 -0.097656 0.097676 -0.097656 l1.4063 0 l0 -12.559 c0.013027 -0.065098 0.045586 -0.097656 0.097676 -0.097656 z M90.66399375 24.668 l0 0.80078 l2.6953 0 l0 -0.80078 l-2.6953 0 z M97.73437375 12.09 l5.7031 0 c0.078125 0 0.6901 1.4909 1.8359 4.4727 c0.091152 0.11719 1.2891 3.06 3.5938 8.8281 l1.4648 0 l0 -13.301 l4.9805 0 l0 15.84 l0.56641 0 l0 6.1719 l-2.0117 0 l0 1.1914 l2.0117 0 l0 3.6719 l-7.4805 0 l0 -4.668 l-1.3281 0 c-1.7969 -4.375 -3.0078 -7.3959 -3.6328 -9.0625 l0 -4.707 l-0.70313 0 l0 14.336 l-1.1328 0 l0 4.9414 l-4.668 0 l0 -10.645 l0.83984 0 l0 -0.058594 c-0.026035 -9.1928 -0.039063 -14.863 -0.039063 -17.012 z M106.13279375 25.391 l0 1.0352 l3.1055 0 c-0.2474 -0.6901 -0.40365 -1.0352 -0.46875 -1.0352 l-2.6367 0 z M110.37159375 25.391 l0 1.0352 l-1.0938 0 c0.66406 1.6537 1.0612 2.7344 1.1914 3.2422 l0.039063 0 l0 -0.13672 c-0.091152 -1.6927 -0.13672 -2.7279 -0.13672 -3.1055 l2.2656 0 l0 -1.0352 l-2.2656 0 z M108.39859375 39.47266 l9.043 0 l0 0.52734 l-9.043 0 l0 -0.52734 z M119.7070625 12.207 l13.691 0 l0 4.5508 c0 0.065098 -0.032559 0.097656 -0.097656 0.097656 l-8.125 0 l0 6.0156 l7.2852 0 l0 0.058594 c0 0.16928 -0.026035 1.1523 -0.078125 2.9492 c-0.039063 0 -0.058594 0.013027 -0.058594 0.039063 l0.33203 0 l0 1.4063 l-6.3086 0 l0 5.7031 l-1.6992 0 l0 0.56641 l1.6992 0 l0 1.7383 l7.1484 0 l0 0.64453 l-0.56641 0 l0 3.418 l-8.5547 0 l0 0.60547 l-4.0625 0 l0 -9.9609 l-0.60547 0 l0 -3.5156 l-4.4531 0 l0 -0.60547 l4.4531 0 l0 -13.711 z M119.7460625 25.918 l0 0.60547 l2.2852 0 l0 -0.60547 l-2.2852 0 z M135.60546875 12.07 l9.5703 -0.000019073 c3.2031 0 5.2734 1.1263 6.2109 3.3789 c0.40365 1.1588 0.60547 2.4869 0.60547 3.9844 l0 1.1719 c0 2.7084 -0.59244 4.7721 -1.7773 6.1914 l-2.0313 0 l0 1.0352 l3.1055 0 l0 6.6797 l-1.8359 0 l0 1.0352 l2.7734 0 l0 3.9453 l-5.8203 0 l0 -6.3086 l-2.2461 0 l0 -4.082 l-3.9063 0 l0 6.9141 l0.83984 0 l0 3.9844 l-5.3906 0 c-0.065098 0 -0.097656 -0.032559 -0.097656 -0.097656 l0 -11.211 l2.4023 0 l0 -0.80078 l-2.4023 0 l0 -15.82 z M141.09376875 16.621 l0 7.8906 l1.3281 0 c1.9922 0 3.1445 -0.18881 3.457 -0.56641 c0.32553 -0.20834 0.57943 -0.63152 0.76172 -1.2696 l2.0703 0 l0 -0.99609 l-1.875 0 l0 0.097656 c-0.10416 0.59896 -0.18229 0.89844 -0.23438 0.89844 l-2.6758 0 l0 -0.99609 l2.8125 0 c0.065098 0 0.097656 -0.026035 0.097656 -0.078125 c0.026035 -0.80729 0.039063 -1.263 0.039063 -1.3672 c0 -1.7448 -0.29947 -2.8125 -0.89844 -3.2031 c-0.46875 -0.27344 -1.3281 -0.41016 -2.5781 -0.41016 l-2.3047 0 z M152.9296875 11.953 l5.5664 0 l0 11.504 l-1.0938 0 l0 11.875 l8.3008 0 l0 2.5 l-1.6406 0 l0 0.56641 l1.6406 0 l0 1.6016 l-5.3711 0 l0 -0.42969 l-7.3633 0 c-0.026035 -0.3125 -0.039063 -0.54688 -0.039063 -0.70313 l0 -6.2695 l1.4063 0 l0 -0.83984 l-1.4063 0 l0 -19.805 z M165.7026875 37.832 l2.0313 0 l0 0.56641 l-2.0313 0 l0 -0.56641 z M176.6211 12.07 l4.707 0 c0.065098 0.27344 1.5885 5.358 4.5703 15.254 l0.85938 0 l0 9.1992 l-1.9336 0 l0 0.70313 l1.9336 0 l0 1.9727 l-5.1953 0 l0 -5.6445 l-6.3477 0 l0 2.4023 l-2.5977 0 l0 4.043 l-4.707 0 l0 -0.27344 l0.37109 0 l0 -3.7695 l1.9336 0 l0 -7.832 l1.6016 0 z M178.8285 19.941 l0 0.039063 c-0.40365 2.2266 -1.1849 5.7291 -2.3438 10.508 l4.375 0 l0 -3.1641 l-0.37109 0 c-1.0417 -4.5182 -1.5625 -6.9791 -1.5625 -7.3828 l-0.097656 0 z M166.543 27.285 l3.6719 0 l0 0.83984 l-3.6719 0 l0 -0.83984 z M181.5625 39.53125 l6.2695 0 l0 0.46875 l-6.2695 0 l0 -0.46875 z M187.03125 11.953 l5.5664 0 l0 11.504 l-1.0938 0 l0 11.875 l8.3008 0 l0 2.5 l-1.6406 0 l0 0.56641 l1.6406 0 l0 1.6016 l-5.3711 0 l0 -0.42969 l-7.3633 0 c-0.026035 -0.3125 -0.039063 -0.54688 -0.039063 -0.70313 l0 -6.2695 l1.4063 0 l0 -0.83984 l-1.4063 0 l0 -19.805 z M199.80425 37.832 l2.0313 0 l0 0.56641 l-2.0313 0 l0 -0.56641 z M203.7695625 12.207 l13.691 0 l0 4.5508 c0 0.065098 -0.032559 0.097656 -0.097656 0.097656 l-8.125 0 l0 6.0156 l7.2852 0 l0 0.058594 c0 0.16928 -0.026035 1.1523 -0.078125 2.9492 c-0.039063 0 -0.058594 0.013027 -0.058594 0.039063 l0.33203 0 l0 1.4063 l-6.3086 0 l0 5.7031 l-1.6992 0 l0 0.56641 l1.6992 0 l0 1.7383 l7.1484 0 l0 0.64453 l-0.56641 0 l0 3.418 l-8.5547 0 l0 0.60547 l-4.0625 0 l0 -9.9609 l-0.60547 0 l0 -3.5156 l-4.4531 0 l0 -0.60547 l4.4531 0 l0 -13.711 z M203.8085625 25.918 l0 0.60547 l2.2852 0 l0 -0.60547 l-2.2852 0 z"></path></g></svg>